<svg width="166" height="184" viewBox="0 0 166 184" fill="none" xmlns="http://www.w3.org/2000/svg">
<line y1="-1" x2="3.70128" y2="-1" transform="matrix(0.518473 -0.855094 0.658714 0.752393 2.29358 5.16406)" stroke="#34251F" stroke-width="2"/>
<line y1="-1" x2="3.70128" y2="-1" transform="matrix(0.518473 -0.855094 0.658714 0.752393 2.23486 40.9316)" stroke="#34251F" stroke-width="2"/>
<line y1="-1" x2="3.70128" y2="-1" transform="matrix(0.518473 -0.855094 0.658714 0.752393 2.17615 76.6992)" stroke="#34251F" stroke-width="2"/>
<line y1="-1" x2="3.70128" y2="-1" transform="matrix(0.518473 -0.855094 0.658714 0.752393 2.11743 112.467)" stroke="#34251F" stroke-width="2"/>
<line y1="-1" x2="3.70128" y2="-1" transform="matrix(0.518473 -0.855094 0.658714 0.752393 2.05872 148.232)" stroke="#34251F" stroke-width="2"/>
<line y1="-1" x2="3.70128" y2="-1" transform="matrix(0.518473 -0.855094 0.658714 0.752393 2 184)" stroke="#34251F" stroke-width="2"/>
<line y1="-1" x2="3.70128" y2="-1" transform="matrix(0.518473 -0.855094 0.658714 0.752393 29.2349 5.16406)" stroke="#34251F" stroke-width="2"/>
<line y1="-1" x2="3.70128" y2="-1" transform="matrix(0.518473 -0.855094 0.658714 0.752393 29.1761 40.9316)" stroke="#34251F" stroke-width="2"/>
<line y1="-1" x2="3.70128" y2="-1" transform="matrix(0.518473 -0.855094 0.658714 0.752393 29.1174 76.6992)" stroke="#34251F" stroke-width="2"/>
<line y1="-1" x2="3.70128" y2="-1" transform="matrix(0.518473 -0.855094 0.658714 0.752393 29.0587 112.467)" stroke="#34251F" stroke-width="2"/>
<line y1="-1" x2="3.70128" y2="-1" transform="matrix(0.518473 -0.855094 0.658714 0.752393 29 148.232)" stroke="#34251F" stroke-width="2"/>
<line y1="-1" x2="3.70128" y2="-1" transform="matrix(0.518473 -0.855094 0.658714 0.752393 28.9413 184)" stroke="#34251F" stroke-width="2"/>
<line y1="-1" x2="3.70128" y2="-1" transform="matrix(0.518473 -0.855094 0.658714 0.752393 56.1761 5.16406)" stroke="#34251F" stroke-width="2"/>
<line y1="-1" x2="3.70128" y2="-1" transform="matrix(0.518473 -0.855094 0.658714 0.752393 56.1174 40.9316)" stroke="#34251F" stroke-width="2"/>
<line y1="-1" x2="3.70128" y2="-1" transform="matrix(0.518473 -0.855094 0.658714 0.752393 56.0587 76.6992)" stroke="#34251F" stroke-width="2"/>
<line y1="-1" x2="3.70128" y2="-1" transform="matrix(0.518473 -0.855094 0.658714 0.752393 56 112.467)" stroke="#34251F" stroke-width="2"/>
<line y1="-1" x2="3.70128" y2="-1" transform="matrix(0.518473 -0.855094 0.658714 0.752393 55.9413 148.232)" stroke="#34251F" stroke-width="2"/>
<line y1="-1" x2="3.70128" y2="-1" transform="matrix(0.518473 -0.855094 0.658714 0.752393 55.8826 184)" stroke="#34251F" stroke-width="2"/>
<line y1="-1" x2="3.70128" y2="-1" transform="matrix(0.518473 -0.855094 0.658714 0.752393 83.1174 5.16406)" stroke="#34251F" stroke-width="2"/>
<line y1="-1" x2="3.70128" y2="-1" transform="matrix(0.518473 -0.855094 0.658714 0.752393 83.0587 40.9316)" stroke="#34251F" stroke-width="2"/>
<line y1="-1" x2="3.70128" y2="-1" transform="matrix(0.518473 -0.855094 0.658714 0.752393 83 76.6992)" stroke="#34251F" stroke-width="2"/>
<line y1="-1" x2="3.70128" y2="-1" transform="matrix(0.518473 -0.855094 0.658714 0.752393 82.9413 112.467)" stroke="#34251F" stroke-width="2"/>
<line y1="-1" x2="3.70128" y2="-1" transform="matrix(0.518473 -0.855094 0.658714 0.752393 82.8826 148.232)" stroke="#34251F" stroke-width="2"/>
<line y1="-1" x2="3.70128" y2="-1" transform="matrix(0.518473 -0.855094 0.658714 0.752393 82.8239 184)" stroke="#34251F" stroke-width="2"/>
<line y1="-1" x2="3.70128" y2="-1" transform="matrix(0.518473 -0.855094 0.658714 0.752393 110.059 5.16406)" stroke="#34251F" stroke-width="2"/>
<line y1="-1" x2="3.70128" y2="-1" transform="matrix(0.518473 -0.855094 0.658714 0.752393 110 40.9316)" stroke="#34251F" stroke-width="2"/>
<line y1="-1" x2="3.70128" y2="-1" transform="matrix(0.518473 -0.855094 0.658714 0.752393 109.941 76.6992)" stroke="#34251F" stroke-width="2"/>
<line y1="-1" x2="3.70128" y2="-1" transform="matrix(0.518473 -0.855094 0.658714 0.752393 109.883 112.467)" stroke="#34251F" stroke-width="2"/>
<line y1="-1" x2="3.70128" y2="-1" transform="matrix(0.518473 -0.855094 0.658714 0.752393 109.824 148.232)" stroke="#34251F" stroke-width="2"/>
<line y1="-1" x2="3.70128" y2="-1" transform="matrix(0.518473 -0.855094 0.658714 0.752393 109.765 184)" stroke="#34251F" stroke-width="2"/>
<line y1="-1" x2="3.70128" y2="-1" transform="matrix(0.518473 -0.855094 0.658714 0.752393 137 5.16406)" stroke="#34251F" stroke-width="2"/>
<line y1="-1" x2="3.70128" y2="-1" transform="matrix(0.518473 -0.855094 0.658714 0.752393 136.941 40.9316)" stroke="#34251F" stroke-width="2"/>
<line y1="-1" x2="3.70128" y2="-1" transform="matrix(0.518473 -0.855094 0.658714 0.752393 136.883 76.6992)" stroke="#34251F" stroke-width="2"/>
<line y1="-1" x2="3.70128" y2="-1" transform="matrix(0.518473 -0.855094 0.658714 0.752393 136.824 112.467)" stroke="#34251F" stroke-width="2"/>
<line y1="-1" x2="3.70128" y2="-1" transform="matrix(0.518473 -0.855094 0.658714 0.752393 136.765 148.232)" stroke="#34251F" stroke-width="2"/>
<line y1="-1" x2="3.70128" y2="-1" transform="matrix(0.518473 -0.855094 0.658714 0.752393 136.706 184)" stroke="#34251F" stroke-width="2"/>
<line y1="-1" x2="3.70128" y2="-1" transform="matrix(0.518473 -0.855094 0.658714 0.752393 163.941 5.16406)" stroke="#34251F" stroke-width="2"/>
<line y1="-1" x2="3.70128" y2="-1" transform="matrix(0.518473 -0.855094 0.658714 0.752393 163.883 40.9316)" stroke="#34251F" stroke-width="2"/>
<line y1="-1" x2="3.70128" y2="-1" transform="matrix(0.518473 -0.855094 0.658714 0.752393 163.824 76.6992)" stroke="#34251F" stroke-width="2"/>
<line y1="-1" x2="3.70128" y2="-1" transform="matrix(0.518473 -0.855094 0.658714 0.752393 163.765 112.467)" stroke="#34251F" stroke-width="2"/>
<line y1="-1" x2="3.70128" y2="-1" transform="matrix(0.518473 -0.855094 0.658714 0.752393 163.706 148.232)" stroke="#34251F" stroke-width="2"/>
<line y1="-1" x2="3.70128" y2="-1" transform="matrix(0.518473 -0.855094 0.658714 0.752393 163.648 184)" stroke="#34251F" stroke-width="2"/>
</svg>
