<svg width="1728" height="433" viewBox="0 0 1728 433" fill="none" xmlns="http://www.w3.org/2000/svg">
<path d="M-300 361.5C-224.4 344.833 -148.8 344.833 -73.2 361.5C2.39998 378.167 78 378.167 153.6 361.5C229.2 344.833 304.8 344.833 380.4 361.5C456 378.167 531.6 378.167 607.2 361.5C682.8 344.833 758.4 344.833 834 361.5C909.6 378.167 985.2 378.167 1060.8 361.5C1136.4 344.833 1212 344.833 1287.6 361.5C1363.2 378.167 1438.8 378.167 1514.4 361.5C1590 344.833 1665.6 344.833 1741.2 361.5C1816.8 378.167 1892.4 378.167 1968 361.5" stroke="url(#paint0_linear_0_214)" stroke-width="2"/>
<path d="M-300 303.5C-224.4 286.833 -148.8 286.833 -73.2 303.5C2.39998 320.167 78 320.167 153.6 303.5C229.2 286.833 304.8 286.833 380.4 303.5C456 320.167 531.6 320.167 607.2 303.5C682.8 286.833 758.4 286.833 834 303.5C909.6 320.167 985.2 320.167 1060.8 303.5C1136.4 286.833 1212 286.833 1287.6 303.5C1363.2 320.167 1438.8 320.167 1514.4 303.5C1590 286.833 1665.6 286.833 1741.2 303.5C1816.8 320.167 1892.4 320.167 1968 303.5" stroke="url(#paint1_linear_0_214)" stroke-width="2"/>
<path d="M-300 245.5C-224.4 228.833 -148.8 228.833 -73.2 245.5C2.39998 262.167 78 262.167 153.6 245.5C229.2 228.833 304.8 228.833 380.4 245.5C456 262.167 531.6 262.167 607.2 245.5C682.8 228.833 758.4 228.833 834 245.5C909.6 262.167 985.2 262.167 1060.8 245.5C1136.4 228.833 1212 228.833 1287.6 245.5C1363.2 262.167 1438.8 262.167 1514.4 245.5C1590 228.833 1665.6 228.833 1741.2 245.5C1816.8 262.167 1892.4 262.167 1968 245.5" stroke="url(#paint2_linear_0_214)" stroke-width="2"/>
<path d="M-300 187.5C-224.4 170.833 -148.8 170.833 -73.2 187.5C2.39998 204.167 78 204.167 153.6 187.5C229.2 170.833 304.8 170.833 380.4 187.5C456 204.167 531.6 204.167 607.2 187.5C682.8 170.833 758.4 170.833 834 187.5C909.6 204.167 985.2 204.167 1060.8 187.5C1136.4 170.833 1212 170.833 1287.6 187.5C1363.2 204.167 1438.8 204.167 1514.4 187.5C1590 170.833 1665.6 170.833 1741.2 187.5C1816.8 204.167 1892.4 204.167 1968 187.5" stroke="url(#paint3_linear_0_214)" stroke-width="2"/>
<path d="M-300 129.5C-224.4 112.833 -148.8 112.833 -73.2 129.5C2.39998 146.167 78 146.167 153.6 129.5C229.2 112.833 304.8 112.833 380.4 129.5C456 146.167 531.6 146.167 607.2 129.5C682.8 112.833 758.4 112.833 834 129.5C909.6 146.167 985.2 146.167 1060.8 129.5C1136.4 112.833 1212 112.833 1287.6 129.5C1363.2 146.167 1438.8 146.167 1514.4 129.5C1590 112.833 1665.6 112.833 1741.2 129.5C1816.8 146.167 1892.4 146.167 1968 129.5" stroke="url(#paint4_linear_0_214)" stroke-width="2"/>
<path d="M-300 71.5C-224.4 54.8333 -148.8 54.8333 -73.2 71.5C2.39998 88.1667 78 88.1667 153.6 71.5C229.2 54.8333 304.8 54.8333 380.4 71.5C456 88.1667 531.6 88.1667 607.2 71.5C682.8 54.8333 758.4 54.8333 834 71.5C909.6 88.1667 985.2 88.1667 1060.8 71.5C1136.4 54.8333 1212 54.8333 1287.6 71.5C1363.2 88.1667 1438.8 88.1667 1514.4 71.5C1590 54.8333 1665.6 54.8333 1741.2 71.5C1816.8 88.1667 1892.4 88.1667 1968 71.5" stroke="url(#paint5_linear_0_214)" stroke-width="2"/>
<path d="M-300 13.5C-224.4 -3.16667 -148.8 -3.16667 -73.2 13.5C2.39998 30.1667 78 30.1667 153.6 13.5C229.2 -3.16667 304.8 -3.16667 380.4 13.5C456 30.1667 531.6 30.1667 607.2 13.5C682.8 -3.16667 758.4 -3.16667 834 13.5C909.6 30.1667 985.2 30.1667 1060.8 13.5C1136.4 -3.16667 1212 -3.16667 1287.6 13.5C1363.2 30.1667 1438.8 30.1667 1514.4 13.5C1590 -3.16667 1665.6 -3.16667 1741.2 13.5C1816.8 30.1667 1892.4 30.1667 1968 13.5" stroke="url(#paint6_linear_0_214)" stroke-width="2"/>
<path d="M-300 419.5C-224.4 402.833 -148.8 402.833 -73.2 419.5C2.39998 436.167 78 436.167 153.6 419.5C229.2 402.833 304.8 402.833 380.4 419.5C456 436.167 531.6 436.167 607.2 419.5C682.8 402.833 758.4 402.833 834 419.5C909.6 436.167 985.2 436.167 1060.8 419.5C1136.4 402.833 1212 402.833 1287.6 419.5C1363.2 436.167 1438.8 436.167 1514.4 419.5C1590 402.833 1665.6 402.833 1741.2 419.5C1816.8 436.167 1892.4 436.167 1968 419.5" stroke="url(#paint7_linear_0_214)" stroke-width="2"/>
<defs>
<linearGradient id="paint0_linear_0_214" x1="834" y1="349" x2="834" y2="374" gradientUnits="userSpaceOnUse">
<stop stop-color="#34251F" stop-opacity="0"/>
<stop offset="1" stop-color="#34251F" stop-opacity="0.16"/>
</linearGradient>
<linearGradient id="paint1_linear_0_214" x1="834" y1="291" x2="834" y2="316" gradientUnits="userSpaceOnUse">
<stop stop-color="#34251F" stop-opacity="0"/>
<stop offset="1" stop-color="#34251F" stop-opacity="0.16"/>
</linearGradient>
<linearGradient id="paint2_linear_0_214" x1="834" y1="233" x2="834" y2="258" gradientUnits="userSpaceOnUse">
<stop stop-color="#34251F" stop-opacity="0"/>
<stop offset="1" stop-color="#34251F" stop-opacity="0.16"/>
</linearGradient>
<linearGradient id="paint3_linear_0_214" x1="834" y1="175" x2="834" y2="200" gradientUnits="userSpaceOnUse">
<stop stop-color="#34251F" stop-opacity="0"/>
<stop offset="1" stop-color="#34251F" stop-opacity="0.16"/>
</linearGradient>
<linearGradient id="paint4_linear_0_214" x1="834" y1="117" x2="834" y2="142" gradientUnits="userSpaceOnUse">
<stop stop-color="#34251F" stop-opacity="0"/>
<stop offset="1" stop-color="#34251F" stop-opacity="0.16"/>
</linearGradient>
<linearGradient id="paint5_linear_0_214" x1="834" y1="59" x2="834" y2="84" gradientUnits="userSpaceOnUse">
<stop stop-color="#34251F" stop-opacity="0"/>
<stop offset="1" stop-color="#34251F" stop-opacity="0.16"/>
</linearGradient>
<linearGradient id="paint6_linear_0_214" x1="834" y1="1" x2="834" y2="26" gradientUnits="userSpaceOnUse">
<stop stop-color="#34251F" stop-opacity="0"/>
<stop offset="1" stop-color="#34251F" stop-opacity="0.16"/>
</linearGradient>
<linearGradient id="paint7_linear_0_214" x1="834" y1="407" x2="834" y2="432" gradientUnits="userSpaceOnUse">
<stop stop-color="#34251F" stop-opacity="0"/>
<stop offset="1" stop-color="#34251F" stop-opacity="0.16"/>
</linearGradient>
</defs>
</svg>
